<svg width="24" height="24" viewBox="0 0 24 24" fill="none" xmlns="http://www.w3.org/2000/svg">
<path d="M3 5C3 3.8955 3.8955 3 5 3H19C20.1045 3 21 3.8955 21 5V19C21 20.1045 20.1045 21 19 21H5C3.8955 21 3 20.1045 3 19V5Z" fill="#2196F3"/>
<path d="M13.5 8.5H17V9.5H13.5V8.5ZM10.756 11.714C11.0485 11.5715 11.7075 11.247 11.7075 10.2855C11.7075 8.477 9.7315 8.5005 9.366 8.5005H6V15.5005H9.5125C9.805 15.5 12 15.4175 12 13.4995C12 12.262 11.195 11.857 10.756 11.714ZM7.5 9.714H8.964C9.11 9.714 10.0615 9.766 10.0615 10.5C10.0615 11.2335 9.33 11.357 9.1105 11.357H7.5V9.714ZM9.168 14.2855H7.4845V12.3575H9.168C9.5335 12.3575 10.3385 12.476 10.3385 13.3575C10.3385 14.238 9.314 14.2855 9.168 14.2855ZM16.219 14.1975C15.9865 14.342 15.7545 14.4155 15.4445 14.4155C14.2815 14.4155 14.05 13.435 14.05 13.0005H18C18 12.566 18 12.245 17.9225 11.8825C17.8445 11.52 17.315 10 15.367 10C12.6445 10 12.5 12.389 12.5 12.75C12.5 13.1115 12.578 13.5465 12.7335 13.8355C12.888 14.1975 13.043 14.4875 13.2755 14.7035C13.5075 14.921 13.817 15.1365 14.127 15.282C14.514 15.4275 14.9015 15.5 15.289 15.5C15.908 15.5 16.451 15.356 16.9155 15.066C17.381 14.7765 17.6905 14.342 17.9225 13.763H16.606C16.5285 13.908 16.451 14.052 16.219 14.1975ZM15.367 11.0135C16.126 11.0135 16.451 11.8095 16.528 12.1705H14.05C14.05 12.099 14.2355 11.0135 15.367 11.0135Z" fill="white"/>
</svg>
