<svg width="24" height="24" viewBox="0 0 24 24" fill="none" xmlns="http://www.w3.org/2000/svg">
<path d="M4.99804 3.99783C4.44605 3.99783 3.99805 4.44583 3.99805 4.99783C3.99805 5.24783 3.99805 6.74783 3.99805 6.99783C3.99805 7.54983 4.44605 7.99783 4.99804 7.99783H6.99804C7.55004 7.99783 7.99804 7.54983 7.99804 6.99783V4.99783C7.99804 4.44583 7.55004 3.99783 6.99804 3.99783H4.99804ZM10.998 3.99783C10.446 3.99783 9.99804 4.44583 9.99804 4.99783C9.99804 5.24783 9.99804 6.74783 9.99804 6.99783C9.99804 7.54983 10.446 7.99783 10.998 7.99783H12.998C13.55 7.99783 13.998 7.54983 13.998 6.99783V4.99783C13.998 4.44583 13.55 3.99783 12.998 3.99783H10.998ZM16.998 3.99783C16.446 3.99783 15.998 4.44583 15.998 4.99783C15.998 5.24783 15.998 6.74783 15.998 6.99783C15.998 7.54983 16.446 7.99783 16.998 7.99783H18.998C19.55 7.99783 19.998 7.54983 19.998 6.99783V4.99783C19.998 4.44583 19.55 3.99783 18.998 3.99783H16.998ZM4.99804 9.99783C4.44605 9.99783 3.99805 10.4458 3.99805 10.9978C3.99805 11.2478 3.99805 12.7478 3.99805 12.9978C3.99805 13.5498 4.44605 13.9978 4.99804 13.9978H6.99804C7.55004 13.9978 7.99804 13.5498 7.99804 12.9978V10.9978C7.99804 10.4458 7.55004 9.99783 6.99804 9.99783H4.99804ZM10.998 9.99783C10.446 9.99783 9.99804 10.4458 9.99804 10.9978C9.99804 11.2478 9.99804 12.7478 9.99804 12.9978C9.99804 13.5498 10.446 13.9978 10.998 13.9978H12.998C13.55 13.9978 13.998 13.5498 13.998 12.9978V10.9978C13.998 10.4458 13.55 9.99783 12.998 9.99783H10.998ZM16.998 9.99783C16.446 9.99783 15.998 10.4458 15.998 10.9978C15.998 11.2478 15.998 12.7478 15.998 12.9978C15.998 13.5498 16.446 13.9978 16.998 13.9978H18.998C19.55 13.9978 19.998 13.5498 19.998 12.9978V10.9978C19.998 10.4458 19.55 9.99783 18.998 9.99783H16.998ZM4.99804 15.9978C4.44605 15.9978 3.99805 16.4458 3.99805 16.9978C3.99805 17.2478 3.99805 18.7478 3.99805 18.9978C3.99805 19.5498 4.44605 19.9978 4.99804 19.9978H6.99804C7.55004 19.9978 7.99804 19.5498 7.99804 18.9978V16.9978C7.99804 16.4458 7.55004 15.9978 6.99804 15.9978H4.99804ZM10.998 15.9978C10.446 15.9978 9.99804 16.4458 9.99804 16.9978C9.99804 17.2478 9.99804 18.7478 9.99804 18.9978C9.99804 19.5498 10.446 19.9978 10.998 19.9978H12.998C13.55 19.9978 13.998 19.5498 13.998 18.9978V16.9978C13.998 16.4458 13.55 15.9978 12.998 15.9978H10.998ZM16.998 15.9978C16.446 15.9978 15.998 16.4458 15.998 16.9978C15.998 17.2478 15.998 18.7478 15.998 18.9978C15.998 19.5498 16.446 19.9978 16.998 19.9978H18.998C19.55 19.9978 19.998 19.5498 19.998 18.9978V16.9978C19.998 16.4458 19.55 15.9978 18.998 15.9978H16.998Z" fill="black"/>
</svg>
