<svg width="24" height="24" viewBox="0 0 24 24" fill="none" xmlns="http://www.w3.org/2000/svg">
<path d="M12.0059 2.99072C11.4539 2.99072 11.0059 3.43872 11.0059 3.99072C11.0059 4.54272 11.4539 4.99072 12.0059 4.99072C12.5579 4.99072 13.0059 4.54272 13.0059 3.99072C13.0059 3.43872 12.5579 2.99072 12.0059 2.99072ZM6.00586 4.99072C5.45386 4.99072 5.00586 5.43872 5.00586 5.99072C5.00586 6.54272 5.45386 6.99072 6.00586 6.99072C6.55786 6.99072 7.00586 6.54272 7.00586 5.99072C7.00586 5.43872 6.55786 4.99072 6.00586 4.99072ZM18.0059 4.99072C17.4539 4.99072 17.0059 5.43872 17.0059 5.99072C17.0059 6.54272 17.4539 6.99072 18.0059 6.99072C18.5579 6.99072 19.0059 6.54272 19.0059 5.99072C19.0059 5.43872 18.5579 4.99072 18.0059 4.99072ZM12.0059 5.99072C8.69186 5.99072 6.00586 8.67672 6.00586 11.9907C6.00586 15.3047 8.69186 17.9907 12.0059 17.9907C15.3199 17.9907 18.0059 15.3047 18.0059 11.9907C18.0059 8.67672 15.3199 5.99072 12.0059 5.99072ZM12.0059 7.99072C14.2149 7.99072 16.0059 9.78172 16.0059 11.9907C16.0059 14.1997 14.2149 15.9907 12.0059 15.9907C9.79686 15.9907 8.00586 14.1997 8.00586 11.9907C8.00586 9.78172 9.79686 7.99072 12.0059 7.99072ZM4.00586 10.9907C3.45386 10.9907 3.00586 11.4387 3.00586 11.9907C3.00586 12.5427 3.45386 12.9907 4.00586 12.9907C4.55786 12.9907 5.00586 12.5427 5.00586 11.9907C5.00586 11.4387 4.55786 10.9907 4.00586 10.9907ZM20.0059 10.9907C19.4539 10.9907 19.0059 11.4387 19.0059 11.9907C19.0059 12.5427 19.4539 12.9907 20.0059 12.9907C20.5579 12.9907 21.0059 12.5427 21.0059 11.9907C21.0059 11.4387 20.5579 10.9907 20.0059 10.9907ZM6.00586 16.9907C5.45386 16.9907 5.00586 17.4387 5.00586 17.9907C5.00586 18.5427 5.45386 18.9907 6.00586 18.9907C6.55786 18.9907 7.00586 18.5427 7.00586 17.9907C7.00586 17.4387 6.55786 16.9907 6.00586 16.9907ZM18.0059 16.9907C17.4539 16.9907 17.0059 17.4387 17.0059 17.9907C17.0059 18.5427 17.4539 18.9907 18.0059 18.9907C18.5579 18.9907 19.0059 18.5427 19.0059 17.9907C19.0059 17.4387 18.5579 16.9907 18.0059 16.9907ZM12.0059 18.9907C11.4539 18.9907 11.0059 19.4387 11.0059 19.9907C11.0059 20.5427 11.4539 20.9907 12.0059 20.9907C12.5579 20.9907 13.0059 20.5427 13.0059 19.9907C13.0059 19.4387 12.5579 18.9907 12.0059 18.9907Z" fill="black"/>
</svg>
