<svg width="138" height="45" viewBox="0 0 138 45" fill="none" xmlns="http://www.w3.org/2000/svg">
<path d="M54.0693 9.77312C53.6155 9.77312 53.2193 9.66927 52.8809 9.46158C52.5501 9.25389 52.2924 8.96927 52.1078 8.60773C51.9309 8.24619 51.8424 7.8385 51.8424 7.38465C51.8424 6.93081 51.9309 6.52312 52.1078 6.16158C52.2924 5.80004 52.5501 5.51542 52.8809 5.30773C53.2193 5.10004 53.6155 4.99619 54.0693 4.99619C54.677 4.99619 55.1616 5.15773 55.5232 5.48081C55.8847 5.79619 56.1001 6.21927 56.1693 6.75004H55.0616C55.0155 6.49619 54.9039 6.29619 54.727 6.15004C54.5578 6.00389 54.3386 5.93081 54.0693 5.93081C53.7078 5.93081 53.4309 6.06158 53.2386 6.32312C53.0539 6.58465 52.9616 6.9385 52.9616 7.38465C52.9616 7.83081 53.0539 8.18465 53.2386 8.44619C53.4309 8.70773 53.7078 8.8385 54.0693 8.8385C54.3462 8.8385 54.5693 8.76158 54.7386 8.60773C54.9155 8.45389 55.0232 8.24235 55.0616 7.97312H56.1693C56.1078 8.51158 55.8886 8.94619 55.5116 9.27696C55.1424 9.60773 54.6616 9.77312 54.0693 9.77312ZM49.6155 7.38465C49.6155 6.56158 49.8078 5.82312 50.1924 5.16927C50.577 4.51542 51.1001 4.00773 51.7616 3.64619C52.4309 3.27696 53.1809 3.09235 54.0116 3.09235C54.8424 3.09235 55.5886 3.27696 56.2501 3.64619C56.9193 4.00773 57.4462 4.51542 57.8309 5.16927C58.2155 5.82312 58.4078 6.56158 58.4078 7.38465C58.4078 8.20773 58.2155 8.94619 57.8309 9.60004C57.4462 10.2539 56.9193 10.7654 56.2501 11.1347C55.5886 11.4962 54.8424 11.677 54.0116 11.677C53.1809 11.677 52.4309 11.4962 51.7616 11.1347C51.1001 10.7654 50.577 10.2539 50.1924 9.60004C49.8078 8.94619 49.6155 8.20773 49.6155 7.38465ZM50.7347 7.38465C50.7347 8.0385 50.8732 8.61158 51.1501 9.10389C51.427 9.5885 51.8116 9.96542 52.3039 10.2347C52.8039 10.5039 53.3732 10.6385 54.0116 10.6385C54.6501 10.6385 55.2155 10.5039 55.7078 10.2347C56.2078 9.96542 56.5962 9.5885 56.8732 9.10389C57.1501 8.61158 57.2886 8.0385 57.2886 7.38465C57.2886 6.73081 57.1501 6.16158 56.8732 5.67696C56.5962 5.18465 56.2078 4.80388 55.7078 4.53465C55.2155 4.26542 54.6501 4.13081 54.0116 4.13081C53.3732 4.13081 52.8039 4.26542 52.3039 4.53465C51.8116 4.80388 51.427 5.18465 51.1501 5.67696C50.8732 6.16158 50.7347 6.73081 50.7347 7.38465Z" fill="#0E0E0F"/>
<path fill-rule="evenodd" clip-rule="evenodd" d="M0 6C0 2.68629 2.68629 0 6 0H39C42.3137 0 45 2.68629 45 6V41.9455C45 43.6325 43.6325 45 41.9455 45C40.269 45 38.9336 43.6436 38.7359 41.9788C38.3289 38.5505 37.2433 35.9922 35.479 34.3039C33.1857 32.0679 30.1729 30.9499 26.4406 30.9499C24.2822 30.9499 22.3261 31.364 20.5724 32.1921C20.0641 32.4201 19.5747 32.6725 19.1042 32.9492C17.837 33.6945 15.9332 32.8998 15.9026 31.43C15.8793 30.3071 16.9649 29.4868 18.0689 29.6932C19.4668 29.9546 20.9438 30.0854 22.5 30.0854C25.6389 30.0854 28.4358 29.5536 30.8905 28.49C33.3856 27.4587 35.3373 25.8955 36.7458 23.8006C38.1945 21.7379 38.9189 19.224 38.9189 16.2589C38.9189 13.2938 38.1945 10.7638 36.7458 8.66885C35.3373 6.60616 33.3856 5.04303 30.8905 3.97945C28.4358 2.94811 25.6389 2.43244 22.5 2.43244C19.3611 2.43244 16.5441 2.94811 14.0491 3.97945C11.5943 5.04303 9.64252 6.60616 8.19379 8.66885C6.78531 10.7638 6.08107 13.2938 6.08107 16.2589C6.08107 16.2771 6.08109 16.2953 6.08115 16.3134L6.08114 41.9594C6.08114 43.6387 4.71983 45 3.04057 45C1.36131 45 0 43.6387 0 41.9594V6ZM26.4938 42.1388C27.8953 43.1804 26.4887 45 24.7426 45H22.4719C19.3635 45 17.3467 41.5064 20.3324 40.6416C20.7513 40.5203 21.1878 40.4551 21.6359 40.4551C23.2997 40.4551 24.9244 40.9724 26.4938 42.1388ZM17.4898 13.3099C18.5763 12.762 20.2464 12.488 22.5 12.488C24.7536 12.488 26.4035 12.762 27.4498 13.3099C28.5364 13.89 29.0796 14.873 29.0796 16.2589C29.0796 17.6448 28.5364 18.6117 27.4498 19.1596C26.4035 19.7397 24.7536 20.0297 22.5 20.0297C20.2464 20.0297 18.5763 19.7397 17.4898 19.1596C16.4435 18.6116 15.9203 17.6448 15.9203 16.2589C15.9203 14.873 16.4435 13.89 17.4898 13.3099Z" fill="#0E0E0F"/>
<path d="M73.9938 21.0852C69.8833 21.0852 67.6116 19.5437 67.6387 16.7582L72.2766 16.0822C72.209 17.3667 72.8175 18.0834 73.9668 18.0834C74.8187 18.0834 75.2919 17.7318 75.2919 17.1504C75.2919 16.4202 74.6564 15.974 72.9391 15.3385L71.2354 14.703C69.5317 14.081 67.855 12.837 67.855 10.7141C67.855 7.861 69.9644 6.23841 73.7775 6.23841C77.7528 6.23841 79.7946 7.71226 79.8081 10.3625L75.3325 10.9575C75.4271 9.7946 74.8863 9.19964 73.8451 9.19964C73.0203 9.19964 72.547 9.52416 72.547 10.1056C72.547 10.7141 73.1014 11.1603 74.8187 11.7417L76.5224 12.3231C78.2261 12.9046 80.2679 13.8781 80.2679 16.623C80.2679 19.4761 78.0098 21.0852 73.9938 21.0852Z" fill="#0E0E0F"/>
<path d="M85.9028 21.1257C82.9686 21.1257 81.5218 19.6654 81.5218 16.6365V10.0245H79.7775V6.56293H81.5218V3.70986L86.376 2.37122V6.56293H89.3643V10.0245H86.376V16.0145C86.376 16.9746 86.8087 17.3802 87.6606 17.3802C88.1744 17.3802 88.8099 17.2721 89.4725 17.0692L89.2021 20.4902C88.2556 20.8823 87.0657 21.1257 85.9028 21.1257Z" fill="#0E0E0F"/>
<path d="M102.855 6.56293V20.7606H98.1092C98.1227 19.706 98.285 18.9758 98.8394 17.529L98.569 17.3938C97.4467 19.8412 95.8511 20.977 93.7012 20.977C91.1591 20.977 89.9286 19.6924 89.9286 17.1098V6.56293H94.7829V16.001C94.7829 17.0828 95.2156 17.6236 96.0404 17.6236C97.2709 17.6236 98.001 16.2444 98.001 13.9593V6.56293H102.855Z" fill="#0E0E0F"/>
<path d="M108.003 20.977C105.083 20.977 103.636 18.7189 103.636 14.1891V13.1344C103.636 8.60469 105.083 6.34658 108.003 6.34658C110.329 6.34658 111.708 7.68522 112.547 9.87573L112.831 9.74051C112.303 8.11791 112.087 6.90097 112.087 5.44063V1.83035H116.955V20.7606H112.114C112.141 20.0846 112.384 19.0028 112.844 17.5831L112.547 17.4614C111.762 19.6924 110.437 20.977 108.003 20.977ZM110.207 17.7588C111.451 17.7588 112.087 16.623 112.087 14.3514V12.9992C112.087 10.7411 111.451 9.56473 110.207 9.56473C109.072 9.56473 108.504 10.6059 108.504 12.7694V14.5948C108.504 16.7312 109.072 17.7588 110.207 17.7588Z" fill="#0E0E0F"/>
<path d="M118.006 5.27837V1.89796H122.968V5.27837H118.006ZM118.06 20.7606V6.56293H122.914V20.7606H118.06Z" fill="#0E0E0F"/>
<path d="M130.456 21.1392C126.102 21.1392 123.695 18.462 123.695 13.7294V13.6753C123.695 8.88865 126.102 6.18432 130.456 6.18432C134.81 6.18432 137.23 8.88865 137.23 13.6753V13.7294C137.23 18.462 134.796 21.1392 130.456 21.1392ZM130.456 17.8129C131.659 17.8129 132.254 16.8123 132.254 14.6759V12.6612C132.254 10.5112 131.659 9.49712 130.456 9.49712C129.252 9.49712 128.684 10.5112 128.684 12.6612V14.6759C128.684 16.8123 129.252 17.8129 130.456 17.8129Z" fill="#0E0E0F"/>
<path d="M78.5505 43.166L78.1584 39.4205L79.6864 39.3123C81.1332 39.1906 81.5794 38.7444 81.7011 38.2036L81.8228 37.6492L77.6716 23.8706H82.6611L83.8645 29.7661C84.0944 30.983 84.2972 32.3352 84.4865 34.5257H84.7705C84.9598 32.3352 85.1491 30.9965 85.3654 29.7661L86.5148 23.8706H91.2879L87.7317 36.7027C86.4201 41.5028 84.0809 43.2607 78.5505 43.166Z" fill="#0E0E0F"/>
<path d="M104.319 23.8706V38.0683H99.5731C99.5866 37.0137 99.7489 36.2835 100.303 34.8367L100.033 34.7015C98.9105 37.1489 97.315 38.2847 95.165 38.2847C92.623 38.2847 91.3925 37.0001 91.3925 34.4175V23.8706H96.2468V33.3087C96.2468 34.3905 96.6794 34.9313 97.5043 34.9313C98.7347 34.9313 99.4649 33.5521 99.4649 31.267V23.8706H104.319Z" fill="#0E0E0F"/>
<path d="M111.198 38.3929C107.087 38.3929 104.816 36.8514 104.843 34.0659L109.481 33.3899C109.413 34.6744 110.022 35.3911 111.171 35.3911C112.023 35.3911 112.496 35.0395 112.496 34.4581C112.496 33.7279 111.861 33.2817 110.143 32.6462L108.44 32.0107C106.736 31.3887 105.059 30.1447 105.059 28.0218C105.059 25.1687 107.169 23.5461 110.982 23.5461C114.957 23.5461 116.999 25.02 117.012 27.6702L112.537 28.2652C112.631 27.1023 112.091 26.5073 111.049 26.5073C110.225 26.5073 109.751 26.8319 109.751 27.4133C109.751 28.0218 110.306 28.468 112.023 29.0494L113.727 29.6308C115.43 30.2123 117.472 31.1858 117.472 33.9307C117.472 36.7838 115.214 38.3929 111.198 38.3929Z" fill="#0E0E0F"/>
<path d="M126.88 23.6543C129.787 23.6543 131.234 25.9124 131.234 30.4421V31.4968C131.234 36.0266 129.787 38.2847 126.88 38.2847C124.54 38.2847 123.175 36.9461 122.323 34.7555L122.039 34.8908C122.566 36.5134 122.783 37.7303 122.783 39.1906V42.8009H117.928V23.8706H122.769C122.728 24.5467 122.499 25.6284 122.025 27.0482L122.323 27.1564C123.107 24.9388 124.446 23.6543 126.88 23.6543ZM124.662 26.8724C123.418 26.8724 122.783 28.0083 122.783 30.2799V31.632C122.783 33.8902 123.418 35.0665 124.662 35.0665C125.798 35.0665 126.366 34.0254 126.366 31.8619V30.0365C126.366 27.9001 125.798 26.8724 124.662 26.8724Z" fill="#0E0E0F"/>
</svg>
